<?xml version="1.0" standalone="no"?>
<!DOCTYPE svg PUBLIC "-//W3C//DTD SVG 20010904//EN"
 "http://www.w3.org/TR/2001/REC-SVG-20010904/DTD/svg10.dtd">
<svg version="1.0" xmlns="http://www.w3.org/2000/svg"
 width="512.000000pt" height="512.000000pt" viewBox="0 0 512.000000 512.000000"
 preserveAspectRatio="xMidYMid meet">
<metadata>
Created by potrace 1.14, written by Peter Selinger 2001-2017
</metadata>
<g transform="translate(0.000000,512.000000) scale(0.100000,-0.100000)"
fill="#000000" stroke="none">
<path d="M206 4133 c3 -527 7 -1561 8 -2298 2 -1053 6 -1349 16 -1380 52 -162
155 -285 295 -355 123 -60 259 -77 388 -46 87 21 116 35 380 190 18 10 75 43
127 73 52 31 136 79 185 108 429 252 867 505 875 505 4 0 10 4 12 8 2 4 26 21
53 36 95 54 131 75 390 226 143 84 285 166 315 183 30 16 62 36 71 43 8 8 18
14 21 14 5 0 174 96 228 129 8 6 114 67 235 137 121 70 236 137 255 149 30 20
233 138 570 333 283 164 332 193 328 197 -3 2 -414 236 -488 278 -25 13 -121
68 -215 122 -93 53 -188 107 -210 120 -22 12 -56 32 -75 43 -19 11 -57 33 -85
48 -27 14 -62 35 -77 45 -14 11 -29 19 -33 19 -4 0 -48 24 -98 54 -51 29 -114
66 -142 81 -42 24 -222 126 -965 549 -36 20 -72 41 -80 46 -32 20 -346 197
-360 203 -8 4 -28 16 -45 26 -16 11 -46 28 -65 39 -33 18 -214 121 -443 251
-54 31 -120 69 -145 84 -26 15 -58 33 -72 40 -14 6 -27 14 -30 17 -3 3 -16 11
-30 17 -14 7 -47 26 -75 43 -27 16 -57 33 -65 37 -8 4 -46 26 -85 48 -38 23
-99 58 -135 77 -36 20 -215 122 -399 227 -184 105 -336 191 -338 191 -2 0 -1
-431 3 -957z"/>
</g>
</svg>
