<svg width="40" height="40" viewBox="0 0 40 40" fill="none" xmlns="http://www.w3.org/2000/svg">
<g clip-path="url(#clip0_102_2)">
<path d="M32.4791 18.0451L1.71008 35.9278L1.60777 0.339705L32.4791 18.0451Z" fill="white"/>
<path d="M3.85258 31.3291C1.7051 32.58 0.978335 35.335 2.22931 37.4825C3.48028 39.63 6.23528 40.3568 8.38276 39.1058L3.85258 31.3291ZM29.7751 21.4362L32.0402 25.3246L38.7929 21.391L32.0011 17.5253L29.7751 21.4362ZM6.09681 7.95939L8.32276 4.04849L1.55251 0.195106L1.59689 7.98502L6.09681 7.95939ZM6.20197 26.4199L1.70204 26.4455L1.74446 33.8921L8.31722 30.3917L6.20197 26.4199ZM15.0961 21.6832L17.2113 25.6551C18.6454 24.8914 19.5564 23.414 19.5948 21.7897C19.6333 20.1655 18.7932 18.6466 17.3969 17.8159L15.0961 21.6832ZM13.8754 15.7208C11.7395 14.4501 8.97791 15.1515 7.70721 17.2874C6.43652 19.4232 7.13788 22.1848 9.27375 23.4555L13.8754 15.7208ZM8.38276 39.1058L32.0402 25.3246L27.51 17.5479L3.85258 31.3291L8.38276 39.1058ZM32.0011 17.5253L8.32276 4.04849L3.87087 11.8703L27.5492 25.3471L32.0011 17.5253ZM1.59689 7.98502L1.70204 26.4455L10.7019 26.3942L10.5967 7.93376L1.59689 7.98502ZM8.31722 30.3917L17.2113 25.6551L12.9808 17.7114L4.08672 22.448L8.31722 30.3917ZM17.3969 17.8159L13.8754 15.7208L9.27375 23.4555L12.7953 25.5506L17.3969 17.8159Z" fill="white"/>
<path d="M4.98513 33.2732C3.91139 33.8987 3.548 35.2762 4.17349 36.35C4.79898 37.4237 6.17648 37.7871 7.25022 37.1616L4.98513 33.2732ZM29.7751 21.4362L30.9077 23.3804L34.284 21.4136L30.8881 19.4808L29.7751 21.4362ZM6.09681 7.95939L7.20979 6.00394L3.82466 4.07725L3.84685 7.97221L6.09681 7.95939ZM6.20197 26.4199L3.952 26.4327L3.97321 30.156L7.25959 28.4058L6.20197 26.4199ZM15.0961 21.6832L16.1537 23.6692C16.8707 23.2873 17.3262 22.5486 17.3455 21.7365C17.3647 20.9244 16.9446 20.1649 16.2465 19.7496L15.0961 21.6832ZM12.725 17.6545C11.657 17.0192 10.2762 17.3698 9.64088 18.4378C9.00554 19.5057 9.35622 20.8865 10.4242 21.5218L12.725 17.6545ZM7.25022 37.1616L30.9077 23.3804L28.6426 19.4921L4.98513 33.2732L7.25022 37.1616ZM30.8881 19.4808L7.20979 6.00394L4.98384 9.91484L28.6621 23.3917L30.8881 19.4808ZM3.84685 7.97221L3.952 26.4327L8.45193 26.4071L8.34678 7.94657L3.84685 7.97221ZM7.25959 28.4058L16.1537 23.6692L14.0385 19.6973L5.14434 24.4339L7.25959 28.4058ZM16.2465 19.7496L12.725 17.6545L10.4242 21.5218L13.9457 23.6169L16.2465 19.7496Z" fill="url(#paint0_linear_102_2)"/>
</g>
<defs>
<linearGradient id="paint0_linear_102_2" x1="29.1707" y1="21.9618" x2="5.85837" y2="21.5529" gradientUnits="userSpaceOnUse">
<stop stop-color="#9400D3"/>
<stop offset="1" stop-color="#4B0082"/>
</linearGradient>
<clipPath id="clip0_102_2">
<rect width="40" height="40" fill="white"/>
</clipPath>
</defs>
</svg>
